<svg width="70" height="70" viewBox="0 0 70 70" fill="none" xmlns="http://www.w3.org/2000/svg">
<path d="M68.0531 30.625C68.5781 30.0431 68.9062 29.2808 68.9062 28.4375C68.9062 26.6284 67.4341 25.1562 65.625 25.1562H64.5312V7.65625H40.4688V21.1542C39.5741 21.4375 38.7264 21.8673 37.987 22.4591L34.6161 25.1562H25.6091L25.3466 24.8938C26.5191 24.3928 27.3438 23.2291 27.3438 21.875C27.3438 20.7616 26.7837 19.7783 25.9328 19.1855L29.5312 17.0253V16.4062C29.5312 13.3339 27.3317 10.7373 24.302 10.2331L24.0144 10.185L24.1675 9.49484L23.742 9.07047C23.4861 8.81344 21.1608 6.5625 18.5938 6.5625C16.0267 6.5625 13.7014 8.81344 13.4455 9.07047L13.02 9.49484L13.1731 10.185L12.8855 10.2331C9.85578 10.7373 7.65625 13.3339 7.65625 16.4062V17.0253L11.2547 19.1844C10.4038 19.7783 9.84375 20.7616 9.84375 21.875C9.84375 23.2291 10.6684 24.3928 11.8409 24.8938L6.21906 30.5156C2.91375 33.8198 1.09375 38.2145 1.09375 42.8892V43.75C1.09375 53.3991 8.94469 61.25 18.5938 61.25C28.2428 61.25 36.0938 53.3991 36.0938 43.75V42.8892C36.0938 42.7623 36.0784 42.6377 36.0752 42.5108L36.983 43.237C37.9903 44.0431 39.2 44.5572 40.4688 44.7497V62.3438H64.5312V44.8438H65.625C67.4341 44.8438 68.9062 43.3716 68.9062 41.5625C68.9062 40.7192 68.577 39.9569 68.0531 39.375C68.5781 38.7931 68.9062 38.0308 68.9062 37.1875C68.9062 36.3442 68.577 35.5819 68.0531 35C68.5781 34.4181 68.9062 33.6558 68.9062 32.8125C68.9062 31.9692 68.577 31.2069 68.0531 30.625ZM66.7188 37.1875C66.7188 37.7902 66.2288 38.2812 65.625 38.2812H63.4375C62.8338 38.2812 62.3438 37.7902 62.3438 37.1875C62.3438 36.5848 62.8338 36.0938 63.4375 36.0938H65.625C66.2288 36.0938 66.7188 36.5848 66.7188 37.1875ZM55.8688 60.1562H49.1312C48.6489 56.8105 46.002 54.1636 42.6562 53.6813V41.8961C44.835 44.9958 48.4313 47.0312 52.5 47.0312C55.6927 47.0312 58.6578 45.792 60.8891 43.6045C61.2664 44.0748 61.7652 44.4358 62.3438 44.6425V53.6813C58.998 54.1636 56.3511 56.8105 55.8688 60.1562ZM42.6562 29.1364C43.283 28.6584 43.8419 28.0831 44.2925 27.4072L44.3352 27.3438H49.2188C50.82 27.3438 52.208 26.4698 52.9703 25.1836C55.8206 25.317 58.4205 26.6427 60.2011 28.8892C60.2941 29.5531 60.5806 30.1503 61.0094 30.6261C60.4844 31.208 60.1562 31.9703 60.1562 32.8136C60.1562 33.6569 60.4855 34.4192 61.0094 35.0011C60.4844 35.583 60.1562 36.3453 60.1562 37.1886C60.1562 38.0319 60.4855 38.7942 61.0094 39.3761C60.5806 39.8519 60.2941 40.4491 60.2011 41.113C58.322 43.482 55.5352 44.8438 52.5 44.8438C47.0717 44.8438 42.6562 40.4272 42.6562 35V29.1364ZM63.4375 33.9062C62.8338 33.9062 62.3438 33.4152 62.3438 32.8125C62.3438 32.2098 62.8338 31.7188 63.4375 31.7188H65.625C66.2288 31.7188 66.7188 32.2098 66.7188 32.8125C66.7188 33.4152 66.2288 33.9062 65.625 33.9062H63.4375ZM66.7188 28.4375C66.7188 29.0402 66.2288 29.5312 65.625 29.5312H63.4375C62.8338 29.5312 62.3438 29.0402 62.3438 28.4375C62.3438 27.8348 62.8338 27.3438 63.4375 27.3438H65.625C66.2288 27.3438 66.7188 27.8348 66.7188 28.4375ZM62.3438 14.1083C60.2044 13.6719 58.5156 11.9831 58.0792 9.84375H62.3438V14.1083ZM46.9208 9.84375C46.4844 11.9831 44.7956 13.6719 42.6562 14.1083V9.84375H46.9208ZM42.6562 16.3188C46.002 15.8364 48.6489 13.1895 49.1312 9.84375H55.8688C56.3511 13.1895 58.998 15.8364 62.3438 16.3188V25.3575C61.7652 25.5642 61.2664 25.9252 60.8891 26.3955C58.9137 24.4595 56.3631 23.2772 53.5872 23.0311C53.5883 23.0103 53.5938 22.9906 53.5938 22.9688C53.5938 21.7623 52.6127 20.7812 51.4062 20.7812H42.77C42.7317 20.7812 42.6945 20.79 42.6562 20.7911V16.3188ZM24.0625 20.7812C24.6663 20.7812 25.1562 21.2723 25.1562 21.875C25.1562 22.4777 24.6663 22.9688 24.0625 22.9688H13.125C12.5212 22.9688 12.0312 22.4777 12.0312 21.875C12.0312 21.2723 12.5212 20.7812 13.125 20.7812H24.0625ZM23.9433 12.3911C25.7152 12.6864 27.0506 14.082 27.3011 15.8123L22.6658 18.5938H22.1452L23.5386 12.3233L23.9433 12.3911ZM18.5938 8.75C19.7258 8.75 21.023 9.61734 21.7623 10.2298L19.9041 18.5938H17.2845L15.4252 10.2298C16.1645 9.61734 17.4617 8.75 18.5938 8.75ZM13.2442 12.3911L13.6489 12.3233L15.0423 18.5938H14.5217L9.88641 15.8123C10.138 14.082 11.4723 12.6864 13.2442 12.3911ZM33.9062 43.75C33.9062 52.1937 27.0375 59.0625 18.5938 59.0625C10.15 59.0625 3.28125 52.1937 3.28125 43.75V42.8892C3.28125 38.7986 4.87375 34.953 7.76672 32.0611L14.6716 25.1562H22.5159L29.4208 32.0611C32.3137 34.953 33.9062 38.7986 33.9062 42.8892V43.75ZM38.3502 41.5297L35.758 39.4559C35.0919 36.0894 33.448 32.9952 30.9673 30.5145L27.7966 27.3438H35.3839L39.3553 24.1675C40.32 23.3942 41.5341 22.9688 42.77 22.9688H51.4062C51.4062 24.1752 50.4252 25.1562 49.2188 25.1562H43.1648L42.4725 26.1942C41.5363 27.5986 39.9689 28.4375 38.2812 28.4375V30.625C39.0359 30.625 39.7698 30.4948 40.4688 30.2728V42.5228C39.6998 42.3544 38.9692 42.0252 38.3502 41.5297ZM42.6562 55.8917C44.7956 56.3281 46.4844 58.0169 46.9208 60.1562H42.6562V55.8917ZM58.0792 60.1562C58.5156 58.0169 60.2044 56.3281 62.3438 55.8917V60.1562H58.0792ZM65.625 42.6562H63.4375C62.8338 42.6562 62.3438 42.1652 62.3438 41.5625C62.3438 40.9598 62.8338 40.4688 63.4375 40.4688H65.625C66.2288 40.4688 66.7188 40.9598 66.7188 41.5625C66.7188 42.1652 66.2288 42.6562 65.625 42.6562Z" fill="#5E72EB"/>
<path d="M52.5 38.2812C51.8963 38.2812 51.4062 37.7902 51.4062 37.1875H49.2188C49.2188 38.6116 50.1364 39.8147 51.4062 40.2675V42.6562H53.5938V40.2675C54.8636 39.8147 55.7812 38.6116 55.7812 37.1875C55.7812 35.3784 54.3091 33.9062 52.5 33.9062C51.8963 33.9062 51.4062 33.4152 51.4062 32.8125C51.4062 32.2098 51.8963 31.7188 52.5 31.7188C53.1037 31.7188 53.5938 32.2098 53.5938 32.8125H55.7812C55.7812 31.3884 54.8636 30.1853 53.5938 29.7325V27.3438H51.4062V29.7325C50.1364 30.1853 49.2188 31.3884 49.2188 32.8125C49.2188 34.6216 50.6909 36.0938 52.5 36.0938C53.1037 36.0938 53.5938 36.5848 53.5938 37.1875C53.5938 37.7902 53.1037 38.2812 52.5 38.2812Z" fill="#5E72EB"/>
<path d="M22.5706 53.9394L23.368 55.9759C28.3631 54.0192 31.7187 49.1061 31.7187 43.75H29.5312C29.5312 48.2136 26.7334 52.3086 22.5706 53.9394Z" fill="#5E72EB"/>
<path d="M18.5938 54.6874V56.8749C19.3944 56.8749 20.1983 56.8016 20.9803 56.6573L20.5833 54.5059C19.9325 54.6262 19.262 54.6874 18.5938 54.6874Z" fill="#5E72EB"/>
</svg>
