<svg width="68" height="68" viewBox="0 0 68 68" fill="none" xmlns="http://www.w3.org/2000/svg">
<path d="M22.6667 0C13.2779 0 5.66669 7.61118 5.66669 17V29.4667C5.67165 33.846 9.22068 37.395 13.6 37.4H14.7334V35.1333H13.6C10.472 35.1297 7.93704 32.5947 7.93335 29.4667V17C7.93335 8.86295 14.5296 2.26667 22.6667 2.26667C30.8037 2.26667 37.4 8.86295 37.4 17V29.4667C37.3963 32.5947 34.8614 35.1297 31.7334 35.1333H30.6V37.4H31.7334C36.1127 37.395 39.6617 33.846 39.6667 29.4667V17C39.6667 7.61118 32.0555 0 22.6667 0Z" fill="#5E72EB"/>
<path d="M9.33974 53.413L10.1682 52.1085L8.25401 50.8936L7.42555 52.1992C4.91989 56.1477 5.1059 61.2318 7.89361 64.9866V68.0001H10.1603V64.6001C10.1604 64.3427 10.0729 64.0928 9.91208 63.8918C7.50261 60.8796 7.27269 56.6696 9.33974 53.413Z" fill="#5E72EB"/>
<path d="M62.3333 0H47.6C44.472 0.00368333 41.937 2.53867 41.9333 5.66667V17C41.937 20.128 44.472 22.663 47.6 22.6667H49.8667V27.2C49.8665 27.6583 50.1425 28.0717 50.566 28.2472C50.7035 28.3046 50.851 28.3338 51 28.3333C51.3006 28.3333 51.5888 28.2138 51.8013 28.0013L57.1359 22.6667H62.3333C65.4613 22.663 67.9963 20.128 68 17V5.66667C67.9963 2.53867 65.4613 0.00368333 62.3333 0ZM65.7333 17C65.7333 18.8778 64.2111 20.4 62.3333 20.4H56.6667C56.3661 20.4 56.0779 20.5196 55.8654 20.7321L52.1333 24.4641V21.5333C52.1333 20.9074 51.6259 20.4 51 20.4H47.6C45.7222 20.4 44.2 18.8778 44.2 17V5.66667C44.2 3.78887 45.7222 2.26667 47.6 2.26667H62.3333C64.2111 2.26667 65.7333 3.78887 65.7333 5.66667V17Z" fill="#5E72EB"/>
<path d="M55.5333 5.6665H47.6V7.93317H55.5333V5.6665Z" fill="#5E72EB"/>
<path d="M62.3333 5.6665H57.8V7.93317H62.3333V5.6665Z" fill="#5E72EB"/>
<path d="M62.3333 10.2002H47.6V12.4669H62.3333V10.2002Z" fill="#5E72EB"/>
<path d="M55.5333 14.7334H47.6V17.0001H55.5333V14.7334Z" fill="#5E72EB"/>
<path d="M37.9077 52.1992L37.0792 50.8936L35.165 52.1085L35.9935 53.4141C38.0607 56.6703 37.8308 60.8801 35.4212 63.8918C35.2604 64.0928 35.1728 64.3427 35.173 64.6001V68.0001H37.4396V64.9866C40.2274 61.2318 40.4134 56.1477 37.9077 52.1992Z" fill="#5E72EB"/>
<path d="M66.8667 38.5334H56.6667C52.4144 38.5384 48.9223 41.895 48.7492 46.1437L45.3333 52.2932V47.6001C45.3284 43.2207 41.7793 39.6717 37.4 39.6667H33.2577L33.2271 39.6429L33.2067 39.6667H30.6C29.3481 39.6667 28.3333 38.652 28.3333 37.4001V34.7333C31.8352 32.7115 33.9946 28.977 34 24.9334V15.8667C33.9983 13.989 33.5311 12.1409 32.64 10.4879C32.3545 9.96208 31.7094 9.74859 31.1667 10.0006L11.9839 19.0265C11.5866 19.2135 11.3332 19.6131 11.3333 20.0521V24.9334C11.3387 28.977 13.4981 32.7115 17 34.7333V37.4001C17 38.652 15.9852 39.6667 14.7333 39.6667H7.93333C3.55399 39.6717 0.00495833 43.2207 0 47.6001V68H2.26667V47.6001C2.27035 44.4721 4.80533 41.9371 7.93333 41.9334H11.5396L21.7453 56.193C21.9549 56.4861 22.2915 56.6619 22.6519 56.6667H22.6667C23.0234 56.6667 23.3593 56.4987 23.5733 56.2134L34.34 41.9334H37.4C40.528 41.9371 43.063 44.4721 43.0667 47.6001V56.6667C43.0672 57.2926 43.5751 57.7996 44.201 57.7991C44.6121 57.7986 44.9908 57.5758 45.1905 57.2164L50.5331 47.6001H57.0305L45.9805 68H48.5588L59.6133 47.6001H60.0667C64.446 47.5951 67.995 44.0461 68 39.6667C68 39.0408 67.4925 38.5334 66.8667 38.5334ZM13.6 24.9334V20.7718L31.0998 12.537C31.5184 13.5972 31.7333 14.7269 31.7333 15.8667V24.9334C31.7333 29.9408 27.674 34.0001 22.6667 34.0001C17.6593 34.0001 13.6 29.9408 13.6 24.9334ZM22.6905 53.6203L19.193 48.7334H26.3738L22.6905 53.6203ZM28.0885 46.4667H17.5667L14.3219 41.9334H14.7333C17.237 41.9334 19.2667 39.9037 19.2667 37.4001V35.7443C21.4798 36.4408 23.8535 36.4408 26.0667 35.7443V37.4001C26.0667 39.9037 28.0963 41.9334 30.6 41.9334H31.5067L28.0885 46.4667ZM60.0667 45.3334H51.1133C51.6552 42.6966 53.9747 40.803 56.6667 40.8001H65.62C65.0781 43.4369 62.7586 45.3304 60.0667 45.3334Z" fill="#5E72EB"/>
</svg>
