<svg width="25" height="23" viewBox="0 0 25 23" fill="none" xmlns="http://www.w3.org/2000/svg">
<path d="M19.825 21.7677C22.1625 21.7677 24.0625 19.8676 24.0625 17.5301V14.1551C22.5125 14.1551 21.2625 12.9051 21.2625 11.3551C21.2625 9.80513 22.5125 8.55515 24.0625 8.55515V5.18013C24.0625 2.84263 22.175 0.942676 19.825 0.930176C19.825 0.930176 19.825 0.930176 19.8125 0.930176H5.17502C2.83752 0.930176 0.9375 2.83012 0.9375 5.16762V8.65517C2.425 8.60517 3.68749 9.76762 3.73749 11.2676C3.73749 11.2926 3.73749 11.3176 3.73749 11.3551C3.73749 12.8926 2.48751 14.1551 0.950012 14.1551C0.950012 14.1551 0.95 14.1551 0.9375 14.1551V17.5301C0.9375 19.8676 2.83752 21.7677 5.17502 21.7677H19.825Z" stroke="#B55E36" stroke-width="1.5" stroke-miterlimit="10" stroke-linecap="round" stroke-linejoin="round"/>
<path d="M12.5002 13.5675L14.6752 14.7174C14.8127 14.7924 14.9752 14.73 15.0502 14.605C15.0752 14.555 15.0877 14.4925 15.0752 14.43L14.6627 12.005L16.4252 10.2925C16.5377 10.18 16.5377 10.005 16.4252 9.90497C16.3877 9.85497 16.3252 9.82996 16.2627 9.81746L13.8252 9.46742L12.7252 7.26741C12.6627 7.12991 12.4877 7.06744 12.3502 7.14244C12.2877 7.16744 12.2502 7.21741 12.2252 7.26741L11.1377 9.46742L8.71267 9.81746C8.56267 9.84246 8.45017 9.97996 8.47517 10.13C8.48767 10.1925 8.51268 10.2425 8.56268 10.2925L10.3252 12.005L9.91266 14.43C9.88766 14.58 9.98765 14.73 10.1377 14.755C10.2002 14.7675 10.2627 14.755 10.3127 14.73L12.5002 13.5675Z" stroke="#B55E36" stroke-width="1.5" stroke-miterlimit="10" stroke-linecap="round" stroke-linejoin="round"/>
</svg>
