<svg width="24" height="18" viewBox="0 0 24 18" fill="none" xmlns="http://www.w3.org/2000/svg">
<path d="M16.2859 12C16.0585 12 15.8405 12.0903 15.6798 12.2511C15.519 12.4118 15.4287 12.6298 15.4287 12.8571C15.4287 13.0845 15.519 13.3025 15.6798 13.4632C15.8405 13.624 16.0585 13.7143 16.2859 13.7143H19.7144C19.9418 13.7143 20.1598 13.624 20.3205 13.4632C20.4813 13.3025 20.5716 13.0845 20.5716 12.8571C20.5716 12.6298 20.4813 12.4118 20.3205 12.2511C20.1598 12.0903 19.9418 12 19.7144 12H16.2859Z" fill="#B55E36"/>
<path d="M0 3.42857C0 2.51926 0.361224 1.64719 1.00421 1.00421C1.64719 0.361223 2.51926 0 3.42857 0H20.5714C21.4807 0 22.3528 0.361223 22.9958 1.00421C23.6388 1.64719 24 2.51926 24 3.42857V13.7143C24 14.6236 23.6388 15.4957 22.9958 16.1387C22.3528 16.7816 21.4807 17.1429 20.5714 17.1429H3.42857C2.51926 17.1429 1.64719 16.7816 1.00421 16.1387C0.361224 15.4957 0 14.6236 0 13.7143V3.42857ZM22.2857 3.42857C22.2857 2.97391 22.1051 2.53788 21.7836 2.21639C21.4621 1.8949 21.0261 1.71429 20.5714 1.71429H3.42857C2.97391 1.71429 2.53788 1.8949 2.21639 2.21639C1.8949 2.53788 1.71429 2.97391 1.71429 3.42857V5.14286H22.2857V3.42857ZM1.71429 13.7143C1.71429 14.1689 1.8949 14.605 2.21639 14.9265C2.53788 15.248 2.97391 15.4286 3.42857 15.4286H20.5714C21.0261 15.4286 21.4621 15.248 21.7836 14.9265C22.1051 14.605 22.2857 14.1689 22.2857 13.7143V6.85714H1.71429V13.7143Z" fill="#B55E36"/>
</svg>
