<svg width="22" height="22" viewBox="0 0 22 22" fill="none" xmlns="http://www.w3.org/2000/svg">
<path d="M11.0002 0.825195C16.6212 0.825195 21.1752 5.37919 21.1752 11.0002C21.1752 16.6212 16.6212 21.1752 11.0002 21.1752C5.37919 21.1752 0.825195 16.6212 0.825195 11.0002C0.825195 5.37919 5.37919 0.825195 11.0002 0.825195Z" stroke="#B55E36" stroke-width="1.5" stroke-miterlimit="10" stroke-linecap="round" stroke-linejoin="round"/>
<g clip-path="url(#clip0)">
<path d="M13.773 15.2451L9.62598 12.7701V7.43506" stroke="#B55E36" stroke-width="1.5" stroke-miterlimit="10" stroke-linecap="round" stroke-linejoin="round"/>
<path d="M12.0002 0.825195C17.6212 0.825195 22.1752 5.37919 22.1752 11.0002C22.1752 16.6212 17.6212 21.1752 12.0002 21.1752C6.37919 21.1752 1.8252 16.6212 1.8252 11.0002C1.8252 5.37919 6.37919 0.825195 12.0002 0.825195Z" stroke="#B55E36" stroke-width="1.5" stroke-miterlimit="10" stroke-linecap="round" stroke-linejoin="round"/>
</g>
<defs>
<clipPath id="clip0">
<rect width="7" height="10" fill="white" transform="translate(8 6)"/>
</clipPath>
</defs>
</svg>
